# Blender 4.0.1
# www.blender.org
o 110
v 0.000000 0.000000 0.000000
v -0.819152 0.000000 0.573576
v -0.819152 1.000000 0.573576
v 0.000000 1.000000 -0.000000
v 0.819152 0.000000 0.573576
v 0.819152 1.000000 0.573576
v -0.770699 0.000000 0.637200
v -0.717316 0.000000 0.696748
v -0.659346 0.000000 0.751840
v -0.597159 0.000000 0.802123
v -0.531152 0.000000 0.847276
v -0.461749 0.000000 0.887011
v -0.389392 0.000000 0.921072
v -0.314545 0.000000 0.949243
v -0.237686 0.000000 0.971342
v -0.159307 0.000000 0.987229
v -0.079909 0.000000 0.996802
v 0.000000 0.000000 1.000000
v 0.079909 0.000000 0.996802
v 0.159307 0.000000 0.987229
v 0.237686 0.000000 0.971342
v 0.314545 0.000000 0.949243
v 0.389392 0.000000 0.921072
v 0.461749 0.000000 0.887011
v 0.531152 0.000000 0.847276
v 0.597159 0.000000 0.802123
v 0.659346 0.000000 0.751840
v 0.717316 0.000000 0.696748
v 0.770699 0.000000 0.637200
v 0.770699 1.000000 0.637200
v 0.717316 1.000000 0.696748
v 0.659346 1.000000 0.751840
v 0.597159 1.000000 0.802123
v 0.531152 1.000000 0.847276
v 0.461749 1.000000 0.887011
v 0.389392 1.000000 0.921072
v 0.314545 1.000000 0.949243
v 0.237686 1.000000 0.971342
v 0.159307 1.000000 0.987229
v 0.079909 1.000000 0.996802
v 0.000000 1.000000 1.000000
v -0.079909 1.000000 0.996802
v -0.159307 1.000000 0.987229
v -0.237686 1.000000 0.971342
v -0.314545 1.000000 0.949243
v -0.389392 1.000000 0.921072
v -0.461749 1.000000 0.887011
v -0.531152 1.000000 0.847276
v -0.597159 1.000000 0.802123
v -0.659346 1.000000 0.751840
v -0.717316 1.000000 0.696748
v -0.770699 1.000000 0.637200
vn -0.5736 -0.0000 -0.8192
vn 0.5736 -0.0000 -0.8192
vn -0.8191 -0.0000 0.5736
vn -0.7707 -0.0000 0.6372
vn -0.7173 -0.0000 0.6967
vn -0.7173 -0.0000 0.6968
vn -0.6594 -0.0000 0.7518
vn -0.6593 -0.0000 0.7519
vn -0.5972 -0.0000 0.8021
vn -0.5971 -0.0000 0.8021
vn -0.5312 -0.0000 0.8473
vn -0.5311 -0.0000 0.8473
vn -0.4618 -0.0000 0.8870
vn -0.4617 -0.0000 0.8870
vn -0.3894 -0.0000 0.9211
vn -0.3146 -0.0000 0.9492
vn -0.3145 -0.0000 0.9492
vn -0.2377 -0.0000 0.9713
vn -0.1593 -0.0000 0.9872
vn -0.0799 -0.0000 0.9968
vn -0.0000 -0.0000 1.0000
vn 0.0799 -0.0000 0.9968
vn 0.1593 -0.0000 0.9872
vn 0.2377 -0.0000 0.9713
vn 0.3145 -0.0000 0.9492
vn 0.3146 -0.0000 0.9492
vn 0.3894 -0.0000 0.9211
vn 0.4617 -0.0000 0.8870
vn 0.4618 -0.0000 0.8870
vn 0.5311 -0.0000 0.8473
vn 0.5312 -0.0000 0.8473
vn 0.5971 -0.0000 0.8021
vn 0.5972 -0.0000 0.8021
vn 0.6593 -0.0000 0.7519
vn 0.6594 -0.0000 0.7518
vn 0.7173 -0.0000 0.6968
vn 0.7173 -0.0000 0.6967
vn 0.7707 -0.0000 0.6372
vn 0.8191 -0.0000 0.5736
vn -0.0000 1.0000 -0.0000
vn -0.0000 -1.0000 -0.0000
vt 0.000000 0.000000
vt 10.000000 -0.000000
vt 0.000000 10.000000
vt 10.000000 10.000000
vt -10.000000 -25.307274
vt -0.000000 -25.307274
vt -10.000000 -24.507332
vt -0.000000 -24.507332
vt -10.000000 -23.707390
vt -0.000000 -23.707390
vt -10.000000 -22.907446
vt -0.000000 -22.907446
vt -10.000000 -22.107504
vt -0.000000 -22.107504
vt -10.000000 -21.307562
vt -0.000000 -21.307562
vt -10.000000 -20.507620
vt -0.000000 -20.507620
vt -10.000000 -19.707676
vt -0.000000 -19.707676
vt -10.000000 -18.907734
vt -0.000000 -18.907734
vt -10.000000 -18.107792
vt -0.000000 -18.107792
vt -10.000000 -17.307848
vt -0.000000 -17.307848
vt -10.000000 -16.507906
vt -0.000000 -16.507906
vt -10.000000 -15.707963
vt -0.000000 -15.707963
vt -10.000000 -14.908021
vt -0.000000 -14.908021
vt -10.000000 -14.108078
vt -0.000000 -14.108078
vt -10.000000 -13.308136
vt -0.000000 -13.308136
vt -10.000000 -12.508193
vt -0.000000 -12.508193
vt -10.000000 -11.708250
vt -0.000000 -11.708250
vt -10.000000 -10.908308
vt -0.000000 -10.908308
vt -10.000000 -10.108365
vt -0.000000 -10.108365
vt -10.000000 -9.308423
vt -0.000000 -9.308423
vt -10.000000 -8.508480
vt -0.000000 -8.508480
vt -10.000000 -7.708538
vt -0.000000 -7.708538
vt -10.000000 -6.908595
vt -0.000000 -6.908595
vt -10.000000 -6.108652
vt -0.000000 -6.108652
vt -8.191520 -0.735764
vt -7.706986 -1.371998
vt 0.000000 5.000000
vt -7.173161 -1.967479
vt -6.593458 -2.518398
vt -5.971586 -3.021232
vt 5.971586 -3.021232
vt 6.593458 -2.518398
vt 7.173161 -1.967479
vt 7.706986 -1.371998
vt 5.311521 -3.472765
vt -5.311521 -3.472765
vt 4.617486 -3.870108
vt -4.617486 -3.870108
vt 3.893919 -4.210722
vt -3.893919 -4.210722
vt 3.145448 -4.492426
vt -3.145448 -4.492426
vt 2.376859 -4.713421
vt -2.376859 -4.713421
vt 1.593069 -4.872291
vt -1.593069 -4.872291
vt 0.799090 -4.968022
vt -0.799090 -4.968022
vt 0.000000 -5.000000
vt 8.191520 -0.735764
s 0
f 1/1/1 2/2/1 4/3/1
f 4/3/1 2/2/1 3/4/1
f 5/1/2 1/2/2 6/3/2
f 6/3/2 1/2/2 4/4/2
f 3/5/3 2/6/3 52/7/4
f 52/7/4 2/6/3 7/8/4
f 52/7/4 7/8/4 51/9/5
f 51/9/5 7/8/4 8/10/5
f 51/9/6 8/10/6 50/11/7
f 50/11/7 8/10/6 9/12/7
f 50/11/8 9/12/8 49/13/9
f 49/13/9 9/12/8 10/14/9
f 49/13/10 10/14/10 48/15/11
f 48/15/11 10/14/10 11/16/11
f 48/15/12 11/16/12 47/17/13
f 47/17/13 11/16/12 12/18/13
f 47/17/14 12/18/14 46/19/15
f 46/19/15 12/18/14 13/20/15
f 46/19/15 13/20/15 45/21/16
f 45/21/16 13/20/15 14/22/16
f 45/21/17 14/22/17 44/23/18
f 44/23/18 14/22/17 15/24/18
f 44/23/18 15/24/18 43/25/19
f 43/25/19 15/24/18 16/26/19
f 43/25/19 16/26/19 42/27/20
f 42/27/20 16/26/19 17/28/20
f 42/27/20 17/28/20 41/29/21
f 41/29/21 17/28/20 18/30/21
f 41/29/21 18/30/21 40/31/22
f 40/31/22 18/30/21 19/32/22
f 40/31/22 19/32/22 39/33/23
f 39/33/23 19/32/22 20/34/23
f 39/33/23 20/34/23 38/35/24
f 38/35/24 20/34/23 21/36/24
f 38/35/24 21/36/24 37/37/25
f 37/37/25 21/36/24 22/38/25
f 37/37/26 22/38/26 36/39/27
f 36/39/27 22/38/26 23/40/27
f 36/39/27 23/40/27 35/41/28
f 35/41/28 23/40/27 24/42/28
f 35/41/29 24/42/29 34/43/30
f 34/43/30 24/42/29 25/44/30
f 34/43/31 25/44/31 33/45/32
f 33/45/32 25/44/31 26/46/32
f 33/45/33 26/46/33 32/47/34
f 32/47/34 26/46/33 27/48/34
f 32/47/35 27/48/35 31/49/36
f 31/49/36 27/48/35 28/50/36
f 31/49/37 28/50/37 30/51/38
f 30/51/38 28/50/37 29/52/38
f 30/51/38 29/52/38 6/53/39
f 6/53/39 29/52/38 5/54/39
f 3/55/40 52/56/40 4/57/40
f 4/57/40 52/56/40 51/58/40
f 4/57/40 51/58/40 50/59/40
f 49/60/40 33/61/40 50/59/40
f 50/59/40 33/61/40 32/62/40
f 50/59/40 32/62/40 4/57/40
f 4/57/40 32/62/40 31/63/40
f 4/57/40 31/63/40 30/64/40
f 33/61/40 49/60/40 34/65/40
f 34/65/40 49/60/40 48/66/40
f 34/65/40 48/66/40 35/67/40
f 35/67/40 48/66/40 47/68/40
f 35/67/40 47/68/40 36/69/40
f 36/69/40 47/68/40 46/70/40
f 36/69/40 46/70/40 37/71/40
f 37/71/40 46/70/40 45/72/40
f 37/71/40 45/72/40 38/73/40
f 38/73/40 45/72/40 44/74/40
f 38/73/40 44/74/40 39/75/40
f 39/75/40 44/74/40 43/76/40
f 39/75/40 43/76/40 40/77/40
f 40/77/40 43/76/40 42/78/40
f 40/77/40 42/78/40 41/79/40
f 30/64/40 6/80/40 4/57/40
f 5/55/41 29/56/41 1/57/41
f 1/57/41 29/56/41 28/58/41
f 1/57/41 28/58/41 27/59/41
f 26/60/41 10/61/41 27/59/41
f 27/59/41 10/61/41 9/62/41
f 27/59/41 9/62/41 1/57/41
f 1/57/41 9/62/41 8/63/41
f 1/57/41 8/63/41 7/64/41
f 10/61/41 26/60/41 11/65/41
f 11/65/41 26/60/41 25/66/41
f 11/65/41 25/66/41 12/67/41
f 12/67/41 25/66/41 24/68/41
f 12/67/41 24/68/41 13/69/41
f 13/69/41 24/68/41 23/70/41
f 13/69/41 23/70/41 14/71/41
f 14/71/41 23/70/41 22/72/41
f 14/71/41 22/72/41 15/73/41
f 15/73/41 22/72/41 21/74/41
f 15/73/41 21/74/41 16/75/41
f 16/75/41 21/74/41 20/76/41
f 16/75/41 20/76/41 17/77/41
f 17/77/41 20/76/41 19/78/41
f 17/77/41 19/78/41 18/79/41
f 7/64/41 2/80/41 1/57/41
