# Blender 4.0.1
# www.blender.org
o 150
v 0.000000 0.000000 0.000000
v -0.965926 0.000000 0.258819
v -0.965926 1.000000 0.258819
v 0.000000 1.000000 -0.000000
v 0.965926 0.000000 0.258819
v 0.965926 1.000000 0.258819
v -0.939693 0.000000 0.342020
v -0.906308 0.000000 0.422618
v -0.866025 0.000000 0.500000
v -0.819152 0.000000 0.573576
v -0.766044 0.000000 0.642788
v -0.707107 0.000000 0.707107
v -0.642788 0.000000 0.766044
v -0.573576 0.000000 0.819152
v -0.500000 0.000000 0.866025
v -0.422618 0.000000 0.906308
v -0.342020 0.000000 0.939693
v -0.258819 0.000000 0.965926
v -0.173648 0.000000 0.984808
v -0.087156 0.000000 0.996195
v 0.000000 0.000000 1.000000
v 0.087156 0.000000 0.996195
v 0.173648 0.000000 0.984808
v 0.258819 0.000000 0.965926
v 0.342020 0.000000 0.939693
v 0.422618 0.000000 0.906308
v 0.500000 0.000000 0.866025
v 0.573576 0.000000 0.819152
v 0.642788 0.000000 0.766044
v 0.707107 0.000000 0.707107
v 0.766044 0.000000 0.642788
v 0.819152 0.000000 0.573576
v 0.866025 0.000000 0.500000
v 0.906308 0.000000 0.422618
v 0.939693 0.000000 0.342020
v 0.939693 1.000000 0.342020
v 0.906308 1.000000 0.422618
v 0.866025 1.000000 0.500000
v 0.819152 1.000000 0.573576
v 0.766044 1.000000 0.642788
v 0.707107 1.000000 0.707107
v 0.642788 1.000000 0.766044
v 0.573576 1.000000 0.819152
v 0.500000 1.000000 0.866025
v 0.422618 1.000000 0.906308
v 0.342020 1.000000 0.939692
v 0.258819 1.000000 0.965926
v 0.173648 1.000000 0.984808
v 0.087156 1.000000 0.996195
v 0.000000 1.000000 1.000000
v -0.087156 1.000000 0.996195
v -0.173648 1.000000 0.984808
v -0.258819 1.000000 0.965926
v -0.342020 1.000000 0.939692
v -0.422618 1.000000 0.906308
v -0.500000 1.000000 0.866025
v -0.573576 1.000000 0.819152
v -0.642788 1.000000 0.766044
v -0.707107 1.000000 0.707107
v -0.766044 1.000000 0.642788
v -0.819152 1.000000 0.573576
v -0.866025 1.000000 0.500000
v -0.906308 1.000000 0.422618
v -0.939693 1.000000 0.342020
vn -0.2588 -0.0000 -0.9659
vn 0.2588 -0.0000 -0.9659
vn -0.9659 -0.0000 0.2588
vn -0.9397 -0.0000 0.3420
vn -0.9063 -0.0000 0.4226
vn -0.8660 -0.0000 0.5000
vn -0.8192 -0.0000 0.5736
vn -0.8191 -0.0000 0.5736
vn -0.7661 -0.0000 0.6428
vn -0.7660 -0.0000 0.6428
vn -0.7071 -0.0000 0.7071
vn -0.6428 -0.0000 0.7660
vn -0.6428 -0.0000 0.7661
vn -0.5736 -0.0000 0.8191
vn -0.5736 -0.0000 0.8192
vn -0.5000 -0.0000 0.8660
vn -0.4226 -0.0000 0.9063
vn -0.3420 -0.0000 0.9397
vn -0.2588 -0.0000 0.9659
vn -0.1737 -0.0000 0.9848
vn -0.1736 -0.0000 0.9848
vn -0.0872 -0.0000 0.9962
vn -0.0871 -0.0000 0.9962
vn -0.0000 -0.0000 1.0000
vn 0.0871 -0.0000 0.9962
vn 0.0872 -0.0000 0.9962
vn 0.1736 -0.0000 0.9848
vn 0.1737 -0.0000 0.9848
vn 0.2588 -0.0000 0.9659
vn 0.3420 -0.0000 0.9397
vn 0.4226 -0.0000 0.9063
vn 0.5000 -0.0000 0.8660
vn 0.5736 -0.0000 0.8192
vn 0.5736 -0.0000 0.8191
vn 0.6428 -0.0000 0.7661
vn 0.6428 -0.0000 0.7660
vn 0.7071 -0.0000 0.7071
vn 0.7660 -0.0000 0.6428
vn 0.7661 -0.0000 0.6428
vn 0.8191 -0.0000 0.5736
vn 0.8192 -0.0000 0.5736
vn 0.8660 -0.0000 0.5000
vn 0.9063 -0.0000 0.4226
vn 0.9397 -0.0000 0.3420
vn 0.9659 -0.0000 0.2588
vn -0.0000 1.0000 -0.0000
vn -0.0000 -1.0000 -0.0000
vt 0.000000 0.000000
vt 10.000000 0.000000
vt 0.000000 10.000000
vt 10.000000 10.000000
vt -10.000000 -28.797934
vt -0.000000 -28.797934
vt -10.000000 -27.925268
vt -0.000000 -27.925268
vt -10.000000 -27.052603
vt -0.000000 -27.052603
vt -10.000000 -26.179939
vt -0.000000 -26.179939
vt -10.000000 -25.307274
vt -0.000000 -25.307274
vt -10.000000 -24.434610
vt -0.000000 -24.434610
vt -10.000000 -23.561945
vt -0.000000 -23.561945
vt -10.000000 -22.689280
vt -0.000000 -22.689280
vt -10.000000 -21.816616
vt -0.000000 -21.816616
vt -10.000000 -20.943951
vt -0.000000 -20.943951
vt -10.000000 -20.071285
vt -0.000000 -20.071285
vt -10.000000 -19.198622
vt -0.000000 -19.198622
vt -10.000000 -18.325956
vt -0.000000 -18.325956
vt -10.000000 -17.453293
vt -0.000000 -17.453293
vt -10.000000 -16.580627
vt -0.000000 -16.580627
vt -10.000000 -15.707963
vt -0.000000 -15.707963
vt -10.000000 -14.835299
vt -0.000000 -14.835299
vt -10.000000 -13.962634
vt -0.000000 -13.962634
vt -10.000000 -13.089969
vt -0.000000 -13.089969
vt -10.000000 -12.217305
vt -0.000000 -12.217305
vt -10.000000 -11.344640
vt -0.000000 -11.344640
vt -10.000000 -10.471976
vt -0.000000 -10.471976
vt -10.000000 -9.599311
vt -0.000000 -9.599311
vt -10.000000 -8.726646
vt -0.000000 -8.726646
vt -10.000000 -7.853982
vt -0.000000 -7.853982
vt -10.000000 -6.981317
vt -0.000000 -6.981317
vt -10.000000 -6.108652
vt -0.000000 -6.108652
vt -10.000000 -5.235988
vt 0.000000 -5.235988
vt -10.000000 -4.363323
vt -0.000000 -4.363323
vt -10.000000 -3.490659
vt -0.000000 -3.490659
vt -10.000000 -2.617994
vt -0.000000 -2.617994
vt -9.659258 2.411810
vt -9.396926 1.579799
vt 0.000000 5.000000
vt -9.063078 0.773817
vt -8.660254 -0.000000
vt -8.191520 -0.735764
vt 8.191520 -0.735764
vt 8.660254 -0.000000
vt 7.660444 -1.427876
vt -7.660444 -1.427876
vt 7.071068 -2.071068
vt -7.071068 -2.071068
vt 6.427876 -2.660444
vt -6.427876 -2.660444
vt 5.735764 -3.191520
vt -5.735764 -3.191520
vt 5.000000 -3.660254
vt -5.000000 -3.660254
vt 4.226183 -4.063078
vt -4.226183 -4.063078
vt 3.420201 -4.396926
vt -3.420201 -4.396926
vt 2.588190 -4.659258
vt -2.588190 -4.659258
vt 1.736482 -4.848078
vt -1.736482 -4.848078
vt 0.871557 -4.961947
vt -0.871557 -4.961947
vt -0.000000 -5.000000
vt 9.063078 0.773817
vt 9.396926 1.579799
vt 9.659258 2.411810
s 0
f 1/1/1 2/2/1 4/3/1
f 4/3/1 2/2/1 3/4/1
f 5/1/2 1/2/2 6/3/2
f 6/3/2 1/2/2 4/4/2
f 3/5/3 2/6/3 64/7/4
f 64/7/4 2/6/3 7/8/4
f 64/7/4 7/8/4 63/9/5
f 63/9/5 7/8/4 8/10/5
f 63/9/5 8/10/5 62/11/6
f 62/11/6 8/10/5 9/12/6
f 62/11/6 9/12/6 61/13/7
f 61/13/7 9/12/6 10/14/7
f 61/13/8 10/14/8 60/15/9
f 60/15/9 10/14/8 11/16/9
f 60/15/10 11/16/10 59/17/11
f 59/17/11 11/16/10 12/18/11
f 59/17/11 12/18/11 58/19/12
f 58/19/12 12/18/11 13/20/12
f 58/19/13 13/20/13 57/21/14
f 57/21/14 13/20/13 14/22/14
f 57/21/15 14/22/15 56/23/16
f 56/23/16 14/22/15 15/24/16
f 56/23/16 15/24/16 55/25/17
f 55/25/17 15/24/16 16/26/17
f 55/25/17 16/26/17 54/27/18
f 54/27/18 16/26/17 17/28/18
f 54/27/18 17/28/18 53/29/19
f 53/29/19 17/28/18 18/30/19
f 53/29/19 18/30/19 52/31/20
f 52/31/20 18/30/19 19/32/20
f 52/31/21 19/32/21 51/33/22
f 51/33/22 19/32/21 20/34/22
f 51/33/23 20/34/23 50/35/24
f 50/35/24 20/34/23 21/36/24
f 50/35/24 21/36/24 49/37/25
f 49/37/25 21/36/24 22/38/25
f 49/37/26 22/38/26 48/39/27
f 48/39/27 22/38/26 23/40/27
f 48/39/28 23/40/28 47/41/29
f 47/41/29 23/40/28 24/42/29
f 47/41/29 24/42/29 46/43/30
f 46/43/30 24/42/29 25/44/30
f 46/43/30 25/44/30 45/45/31
f 45/45/31 25/44/30 26/46/31
f 45/45/31 26/46/31 44/47/32
f 44/47/32 26/46/31 27/48/32
f 44/47/32 27/48/32 43/49/33
f 43/49/33 27/48/32 28/50/33
f 43/49/34 28/50/34 42/51/35
f 42/51/35 28/50/34 29/52/35
f 42/51/36 29/52/36 41/53/37
f 41/53/37 29/52/36 30/54/37
f 41/53/37 30/54/37 40/55/38
f 40/55/38 30/54/37 31/56/38
f 40/55/39 31/56/39 39/57/40
f 39/57/40 31/56/39 32/58/40
f 39/57/41 32/58/41 38/59/42
f 38/59/42 32/58/41 33/60/42
f 38/59/42 33/60/42 37/61/43
f 37/61/43 33/60/42 34/62/43
f 37/61/43 34/62/43 36/63/44
f 36/63/44 34/62/43 35/64/44
f 36/63/44 35/64/44 6/65/45
f 6/65/45 35/64/44 5/66/45
f 3/67/46 64/68/46 4/69/46
f 4/69/46 64/68/46 63/70/46
f 4/69/46 63/70/46 62/71/46
f 62/71/46 61/72/46 4/69/46
f 4/69/46 61/72/46 39/73/46
f 4/69/46 39/73/46 38/74/46
f 39/73/46 61/72/46 40/75/46
f 40/75/46 61/72/46 60/76/46
f 40/75/46 60/76/46 41/77/46
f 41/77/46 60/76/46 59/78/46
f 41/77/46 59/78/46 42/79/46
f 42/79/46 59/78/46 58/80/46
f 42/79/46 58/80/46 43/81/46
f 43/81/46 58/80/46 57/82/46
f 43/81/46 57/82/46 44/83/46
f 44/83/46 57/82/46 56/84/46
f 44/83/46 56/84/46 45/85/46
f 45/85/46 56/84/46 55/86/46
f 45/85/46 55/86/46 46/87/46
f 46/87/46 55/86/46 54/88/46
f 46/87/46 54/88/46 47/89/46
f 47/89/46 54/88/46 53/90/46
f 47/89/46 53/90/46 48/91/46
f 48/91/46 53/90/46 52/92/46
f 48/91/46 52/92/46 49/93/46
f 49/93/46 52/92/46 51/94/46
f 49/93/46 51/94/46 50/95/46
f 38/74/46 37/96/46 4/69/46
f 4/69/46 37/96/46 36/97/46
f 4/69/46 36/97/46 6/98/46
f 5/67/47 35/68/47 1/69/47
f 1/69/47 35/68/47 34/70/47
f 1/69/47 34/70/47 33/71/47
f 33/71/47 32/72/47 1/69/47
f 1/69/47 32/72/47 10/73/47
f 1/69/47 10/73/47 9/74/47
f 10/73/47 32/72/47 11/75/47
f 11/75/47 32/72/47 31/76/47
f 11/75/47 31/76/47 12/77/47
f 12/77/47 31/76/47 30/78/47
f 12/77/47 30/78/47 13/79/47
f 13/79/47 30/78/47 29/80/47
f 13/79/47 29/80/47 14/81/47
f 14/81/47 29/80/47 28/82/47
f 14/81/47 28/82/47 15/83/47
f 15/83/47 28/82/47 27/84/47
f 15/83/47 27/84/47 16/85/47
f 16/85/47 27/84/47 26/86/47
f 16/85/47 26/86/47 17/87/47
f 17/87/47 26/86/47 25/88/47
f 17/87/47 25/88/47 18/89/47
f 18/89/47 25/88/47 24/90/47
f 18/89/47 24/90/47 19/91/47
f 19/91/47 24/90/47 23/92/47
f 19/91/47 23/92/47 20/93/47
f 20/93/47 23/92/47 22/94/47
f 20/93/47 22/94/47 21/95/47
f 9/74/47 8/96/47 1/69/47
f 1/69/47 8/96/47 7/97/47
f 1/69/47 7/97/47 2/98/47
