# Blender 4.0.1
# www.blender.org
o 170
v 0.000000 0.000000 0.000000
v -0.996195 0.000000 0.087156
v -0.996195 1.000000 0.087156
v 0.000000 1.000000 -0.000000
v 0.996195 0.000000 0.087156
v 0.996195 1.000000 0.087156
v -0.984808 0.000000 0.173648
v -0.965926 0.000000 0.258819
v -0.939693 0.000000 0.342020
v -0.906308 0.000000 0.422618
v -0.866025 0.000000 0.500000
v -0.819152 0.000000 0.573576
v -0.766044 0.000000 0.642788
v -0.707107 0.000000 0.707107
v -0.642788 0.000000 0.766044
v -0.573576 0.000000 0.819152
v -0.500000 0.000000 0.866025
v -0.422618 0.000000 0.906308
v -0.342020 0.000000 0.939693
v -0.258819 0.000000 0.965926
v -0.173648 0.000000 0.984808
v -0.087156 0.000000 0.996195
v 0.000000 0.000000 1.000000
v 0.087156 0.000000 0.996195
v 0.173648 0.000000 0.984808
v 0.258819 0.000000 0.965926
v 0.342020 0.000000 0.939693
v 0.422618 0.000000 0.906308
v 0.500000 0.000000 0.866025
v 0.573576 0.000000 0.819152
v 0.642788 0.000000 0.766044
v 0.707107 0.000000 0.707107
v 0.766044 0.000000 0.642788
v 0.819152 0.000000 0.573576
v 0.866025 0.000000 0.500000
v 0.906308 0.000000 0.422618
v 0.939693 0.000000 0.342020
v 0.965926 0.000000 0.258819
v 0.984808 0.000000 0.173648
v 0.984808 1.000000 0.173648
v 0.965926 1.000000 0.258819
v 0.939693 1.000000 0.342020
v 0.906308 1.000000 0.422618
v 0.866025 1.000000 0.500000
v 0.819152 1.000000 0.573576
v 0.766044 1.000000 0.642788
v 0.707107 1.000000 0.707107
v 0.642788 1.000000 0.766044
v 0.573576 1.000000 0.819152
v 0.500000 1.000000 0.866025
v 0.422618 1.000000 0.906308
v 0.342020 1.000000 0.939692
v 0.258819 1.000000 0.965926
v 0.173648 1.000000 0.984808
v 0.087156 1.000000 0.996195
v 0.000000 1.000000 1.000000
v -0.087156 1.000000 0.996195
v -0.173648 1.000000 0.984808
v -0.258819 1.000000 0.965926
v -0.342020 1.000000 0.939692
v -0.422618 1.000000 0.906308
v -0.500000 1.000000 0.866025
v -0.573576 1.000000 0.819152
v -0.642788 1.000000 0.766044
v -0.707107 1.000000 0.707107
v -0.766044 1.000000 0.642788
v -0.819152 1.000000 0.573576
v -0.866025 1.000000 0.500000
v -0.906308 1.000000 0.422618
v -0.939693 1.000000 0.342020
v -0.965926 1.000000 0.258819
v -0.984808 1.000000 0.173648
vn -0.0872 -0.0000 -0.9962
vn 0.0872 -0.0000 -0.9962
vn -0.9962 -0.0000 0.0872
vn -0.9848 -0.0000 0.1736
vn -0.9848 -0.0000 0.1737
vn -0.9659 -0.0000 0.2588
vn -0.9397 -0.0000 0.3420
vn -0.9063 -0.0000 0.4226
vn -0.8660 -0.0000 0.5000
vn -0.8192 -0.0000 0.5736
vn -0.8191 -0.0000 0.5736
vn -0.7661 -0.0000 0.6428
vn -0.7660 -0.0000 0.6428
vn -0.7071 -0.0000 0.7071
vn -0.6428 -0.0000 0.7660
vn -0.6428 -0.0000 0.7661
vn -0.5736 -0.0000 0.8191
vn -0.5736 -0.0000 0.8192
vn -0.5000 -0.0000 0.8660
vn -0.4226 -0.0000 0.9063
vn -0.3420 -0.0000 0.9397
vn -0.2588 -0.0000 0.9659
vn -0.1737 -0.0000 0.9848
vn -0.1736 -0.0000 0.9848
vn -0.0872 -0.0000 0.9962
vn -0.0871 -0.0000 0.9962
vn -0.0000 -0.0000 1.0000
vn 0.0871 -0.0000 0.9962
vn 0.0872 -0.0000 0.9962
vn 0.1736 -0.0000 0.9848
vn 0.1737 -0.0000 0.9848
vn 0.2588 -0.0000 0.9659
vn 0.3420 -0.0000 0.9397
vn 0.4226 -0.0000 0.9063
vn 0.5000 -0.0000 0.8660
vn 0.5736 -0.0000 0.8192
vn 0.5736 -0.0000 0.8191
vn 0.6428 -0.0000 0.7661
vn 0.6428 -0.0000 0.7660
vn 0.7071 -0.0000 0.7071
vn 0.7660 -0.0000 0.6428
vn 0.7661 -0.0000 0.6428
vn 0.8191 -0.0000 0.5736
vn 0.8192 -0.0000 0.5736
vn 0.8660 -0.0000 0.5000
vn 0.9063 -0.0000 0.4226
vn 0.9397 -0.0000 0.3420
vn 0.9659 -0.0000 0.2588
vn 0.9848 -0.0000 0.1737
vn 0.9848 -0.0000 0.1736
vn 0.9962 -0.0000 0.0872
vn -0.0000 1.0000 -0.0000
vn -0.0000 -1.0000 -0.0000
vt 0.000000 0.000000
vt 10.000000 -0.000000
vt 0.000000 10.000000
vt 10.000000 10.000000
vt -10.000000 -30.543262
vt -0.000000 -30.543262
vt -10.000000 -29.670597
vt -0.000000 -29.670597
vt -10.000000 -28.797934
vt -0.000000 -28.797934
vt -10.000000 -27.925268
vt -0.000000 -27.925268
vt -10.000000 -27.052603
vt -0.000000 -27.052603
vt -10.000000 -26.179939
vt -0.000000 -26.179939
vt -10.000000 -25.307274
vt -0.000000 -25.307274
vt -10.000000 -24.434610
vt -0.000000 -24.434610
vt -10.000000 -23.561945
vt -0.000000 -23.561945
vt -10.000000 -22.689280
vt -0.000000 -22.689280
vt -10.000000 -21.816616
vt -0.000000 -21.816616
vt -10.000000 -20.943951
vt -0.000000 -20.943951
vt -10.000000 -20.071285
vt -0.000000 -20.071285
vt -10.000000 -19.198622
vt -0.000000 -19.198622
vt -10.000000 -18.325956
vt -0.000000 -18.325956
vt -10.000000 -17.453293
vt -0.000000 -17.453293
vt -10.000000 -16.580627
vt -0.000000 -16.580627
vt -10.000000 -15.707963
vt -0.000000 -15.707963
vt -10.000000 -14.835299
vt -0.000000 -14.835299
vt -10.000000 -13.962634
vt -0.000000 -13.962634
vt -10.000000 -13.089969
vt -0.000000 -13.089969
vt -10.000000 -12.217305
vt -0.000000 -12.217305
vt -10.000000 -11.344640
vt -0.000000 -11.344640
vt -10.000000 -10.471976
vt -0.000000 -10.471976
vt -10.000000 -9.599311
vt -0.000000 -9.599311
vt -10.000000 -8.726646
vt -0.000000 -8.726646
vt -10.000000 -7.853982
vt -0.000000 -7.853982
vt -10.000000 -6.981317
vt -0.000000 -6.981317
vt -10.000000 -6.108652
vt -0.000000 -6.108652
vt -10.000000 -5.235988
vt -0.000000 -5.235988
vt -10.000000 -4.363323
vt -0.000000 -4.363323
vt -10.000000 -3.490659
vt -0.000000 -3.490659
vt -10.000000 -2.617994
vt -0.000000 -2.617994
vt -10.000000 -1.745329
vt -0.000000 -1.745329
vt -10.000000 -0.872665
vt -0.000000 -0.872665
vt -9.961947 4.128443
vt -9.848078 3.263518
vt -0.000000 5.000000
vt -9.659258 2.411810
vt -9.396926 1.579799
vt -9.063078 0.773817
vt -8.660254 -0.000000
vt -8.191520 -0.735764
vt -7.660444 -1.427876
vt 7.660444 -1.427876
vt 8.191520 -0.735764
vt 8.660254 0.000000
vt 9.063078 0.773817
vt 7.071068 -2.071068
vt -7.071068 -2.071068
vt 6.427876 -2.660444
vt -6.427876 -2.660444
vt 5.735764 -3.191520
vt -5.735764 -3.191520
vt 5.000000 -3.660254
vt -5.000000 -3.660254
vt 4.226183 -4.063078
vt -4.226183 -4.063078
vt 3.420201 -4.396926
vt -3.420201 -4.396926
vt 2.588190 -4.659258
vt -2.588190 -4.659258
vt 1.736482 -4.848078
vt -1.736482 -4.848078
vt 0.871557 -4.961947
vt -0.871557 -4.961947
vt -0.000000 -5.000000
vt 9.396926 1.579799
vt 9.659258 2.411810
vt 9.848078 3.263518
vt 9.961947 4.128443
s 0
f 1/1/1 2/2/1 4/3/1
f 4/3/1 2/2/1 3/4/1
f 5/1/2 1/2/2 6/3/2
f 6/3/2 1/2/2 4/4/2
f 3/5/3 2/6/3 72/7/4
f 72/7/4 2/6/3 7/8/4
f 72/7/5 7/8/5 71/9/6
f 71/9/6 7/8/5 8/10/6
f 71/9/6 8/10/6 70/11/7
f 70/11/7 8/10/6 9/12/7
f 70/11/7 9/12/7 69/13/8
f 69/13/8 9/12/7 10/14/8
f 69/13/8 10/14/8 68/15/9
f 68/15/9 10/14/8 11/16/9
f 68/15/9 11/16/9 67/17/10
f 67/17/10 11/16/9 12/18/10
f 67/17/11 12/18/11 66/19/12
f 66/19/12 12/18/11 13/20/12
f 66/19/13 13/20/13 65/21/14
f 65/21/14 13/20/13 14/22/14
f 65/21/14 14/22/14 64/23/15
f 64/23/15 14/22/14 15/24/15
f 64/23/16 15/24/16 63/25/17
f 63/25/17 15/24/16 16/26/17
f 63/25/18 16/26/18 62/27/19
f 62/27/19 16/26/18 17/28/19
f 62/27/19 17/28/19 61/29/20
f 61/29/20 17/28/19 18/30/20
f 61/29/20 18/30/20 60/31/21
f 60/31/21 18/30/20 19/32/21
f 60/31/21 19/32/21 59/33/22
f 59/33/22 19/32/21 20/34/22
f 59/33/22 20/34/22 58/35/23
f 58/35/23 20/34/22 21/36/23
f 58/35/24 21/36/24 57/37/25
f 57/37/25 21/36/24 22/38/25
f 57/37/26 22/38/26 56/39/27
f 56/39/27 22/38/26 23/40/27
f 56/39/27 23/40/27 55/41/28
f 55/41/28 23/40/27 24/42/28
f 55/41/29 24/42/29 54/43/30
f 54/43/30 24/42/29 25/44/30
f 54/43/31 25/44/31 53/45/32
f 53/45/32 25/44/31 26/46/32
f 53/45/32 26/46/32 52/47/33
f 52/47/33 26/46/32 27/48/33
f 52/47/33 27/48/33 51/49/34
f 51/49/34 27/48/33 28/50/34
f 51/49/34 28/50/34 50/51/35
f 50/51/35 28/50/34 29/52/35
f 50/51/35 29/52/35 49/53/36
f 49/53/36 29/52/35 30/54/36
f 49/53/37 30/54/37 48/55/38
f 48/55/38 30/54/37 31/56/38
f 48/55/39 31/56/39 47/57/40
f 47/57/40 31/56/39 32/58/40
f 47/57/40 32/58/40 46/59/41
f 46/59/41 32/58/40 33/60/41
f 46/59/42 33/60/42 45/61/43
f 45/61/43 33/60/42 34/62/43
f 45/61/44 34/62/44 44/63/45
f 44/63/45 34/62/44 35/64/45
f 44/63/45 35/64/45 43/65/46
f 43/65/46 35/64/45 36/66/46
f 43/65/46 36/66/46 42/67/47
f 42/67/47 36/66/46 37/68/47
f 42/67/47 37/68/47 41/69/48
f 41/69/48 37/68/47 38/70/48
f 41/69/48 38/70/48 40/71/49
f 40/71/49 38/70/48 39/72/49
f 40/71/50 39/72/50 6/73/51
f 6/73/51 39/72/50 5/74/51
f 3/75/52 72/76/52 4/77/52
f 4/77/52 72/76/52 71/78/52
f 4/77/52 71/78/52 70/79/52
f 70/79/52 69/80/52 4/77/52
f 4/77/52 69/80/52 68/81/52
f 4/77/52 68/81/52 67/82/52
f 66/83/52 46/84/52 67/82/52
f 67/82/52 46/84/52 45/85/52
f 67/82/52 45/85/52 4/77/52
f 4/77/52 45/85/52 44/86/52
f 4/77/52 44/86/52 43/87/52
f 46/84/52 66/83/52 47/88/52
f 47/88/52 66/83/52 65/89/52
f 47/88/52 65/89/52 48/90/52
f 48/90/52 65/89/52 64/91/52
f 48/90/52 64/91/52 49/92/52
f 49/92/52 64/91/52 63/93/52
f 49/92/52 63/93/52 50/94/52
f 50/94/52 63/93/52 62/95/52
f 50/94/52 62/95/52 51/96/52
f 51/96/52 62/95/52 61/97/52
f 51/96/52 61/97/52 52/98/52
f 52/98/52 61/97/52 60/99/52
f 52/98/52 60/99/52 53/100/52
f 53/100/52 60/99/52 59/101/52
f 53/100/52 59/101/52 54/102/52
f 54/102/52 59/101/52 58/103/52
f 54/102/52 58/103/52 55/104/52
f 55/104/52 58/103/52 57/105/52
f 55/104/52 57/105/52 56/106/52
f 43/87/52 42/107/52 4/77/52
f 4/77/52 42/107/52 41/108/52
f 4/77/52 41/108/52 40/109/52
f 40/109/52 6/110/52 4/77/52
f 5/75/53 39/76/53 1/77/53
f 1/77/53 39/76/53 38/78/53
f 1/77/53 38/78/53 37/79/53
f 37/79/53 36/80/53 1/77/53
f 1/77/53 36/80/53 35/81/53
f 1/77/53 35/81/53 34/82/53
f 33/83/53 13/84/53 34/82/53
f 34/82/53 13/84/53 12/85/53
f 34/82/53 12/85/53 1/77/53
f 1/77/53 12/85/53 11/86/53
f 1/77/53 11/86/53 10/87/53
f 13/84/53 33/83/53 14/88/53
f 14/88/53 33/83/53 32/89/53
f 14/88/53 32/89/53 15/90/53
f 15/90/53 32/89/53 31/91/53
f 15/90/53 31/91/53 16/92/53
f 16/92/53 31/91/53 30/93/53
f 16/92/53 30/93/53 17/94/53
f 17/94/53 30/93/53 29/95/53
f 17/94/53 29/95/53 18/96/53
f 18/96/53 29/95/53 28/97/53
f 18/96/53 28/97/53 19/98/53
f 19/98/53 28/97/53 27/99/53
f 19/98/53 27/99/53 20/100/53
f 20/100/53 27/99/53 26/101/53
f 20/100/53 26/101/53 21/102/53
f 21/102/53 26/101/53 25/103/53
f 21/102/53 25/103/53 22/104/53
f 22/104/53 25/103/53 24/105/53
f 22/104/53 24/105/53 23/106/53
f 10/87/53 9/107/53 1/77/53
f 1/77/53 9/107/53 8/108/53
f 1/77/53 8/108/53 7/109/53
f 7/109/53 2/110/53 1/77/53
