# Blender 4.0.1
# www.blender.org
o 050
v 0.000000 0.000000 0.000000
v -0.422618 0.000000 0.906308
v -0.422618 1.000000 0.906308
v 0.000000 1.000000 -0.000000
v 0.422618 0.000000 0.906308
v 0.422618 1.000000 0.906308
v -0.360873 0.000000 0.932615
v -0.297503 0.000000 0.954721
v -0.232793 0.000000 0.972526
v -0.167033 0.000000 0.985951
v -0.100522 0.000000 0.994935
v -0.033558 0.000000 0.999437
v 0.033558 0.000000 0.999437
v 0.100522 0.000000 0.994935
v 0.167033 0.000000 0.985951
v 0.232793 0.000000 0.972526
v 0.297503 0.000000 0.954721
v 0.360873 0.000000 0.932615
v 0.360873 1.000000 0.932615
v 0.297503 1.000000 0.954721
v 0.232793 1.000000 0.972526
v 0.167033 1.000000 0.985951
v 0.100522 1.000000 0.994935
v 0.033558 1.000000 0.999437
v -0.033558 1.000000 0.999437
v -0.100522 1.000000 0.994935
v -0.167033 1.000000 0.985951
v -0.232793 1.000000 0.972526
v -0.297503 1.000000 0.954721
v -0.360873 1.000000 0.932615
vn -0.9063 -0.0000 -0.4226
vn 0.9063 -0.0000 -0.4226
vn -0.4226 -0.0000 0.9063
vn -0.3609 -0.0000 0.9326
vn -0.2975 -0.0000 0.9547
vn -0.2328 -0.0000 0.9725
vn -0.1670 -0.0000 0.9860
vn -0.1670 -0.0000 0.9859
vn -0.1005 -0.0000 0.9949
vn -0.0336 -0.0000 0.9994
vn 0.0336 -0.0000 0.9994
vn 0.1005 -0.0000 0.9949
vn 0.1670 -0.0000 0.9860
vn 0.1670 -0.0000 0.9859
vn 0.2328 -0.0000 0.9725
vn 0.2975 -0.0000 0.9547
vn 0.3609 -0.0000 0.9326
vn 0.4226 -0.0000 0.9063
vn -0.0000 1.0000 -0.0000
vn -0.0000 -1.0000 -0.0000
vt 0.000000 0.000000
vt 10.000000 0.000000
vt -0.000000 10.000000
vt 10.000000 10.000000
vt -10.000000 -20.071285
vt -0.000000 -20.071285
vt -10.000000 -19.400005
vt -0.000000 -19.400005
vt -0.000000 -18.728725
vt -10.000000 -18.728725
vt -0.000000 -18.057446
vt -10.000000 -18.057446
vt -0.000000 -17.386164
vt -10.000000 -17.386164
vt -0.000000 -16.714884
vt -10.000000 -16.714884
vt -0.000000 -16.043604
vt -10.000000 -16.043604
vt -0.000000 -15.372323
vt -10.000000 -15.372323
vt -0.000000 -14.701043
vt -10.000000 -14.701043
vt -0.000000 -14.029762
vt -10.000000 -14.029762
vt -0.000000 -13.358482
vt -10.000000 -13.358482
vt -0.000000 -12.687201
vt -10.000000 -12.687201
vt -0.000000 -12.015921
vt -10.000000 -12.015921
vt -10.000000 -11.344640
vt -0.000000 -11.344640
vt -4.226183 -4.063078
vt -3.608734 -4.326148
vt -0.000000 5.000000
vt -2.975031 -4.547209
vt -2.327926 -4.725264
vt -1.670335 -4.859512
vt -1.005220 -4.949348
vt -0.335577 -4.994368
vt 0.335577 -4.994368
vt 1.005220 -4.949348
vt 1.670335 -4.859512
vt 2.327926 -4.725264
vt 2.975031 -4.547209
vt 3.608734 -4.326148
vt 4.226183 -4.063078
s 0
f 1/1/1 2/2/1 4/3/1
f 4/3/1 2/2/1 3/4/1
f 5/1/2 1/2/2 6/3/2
f 6/3/2 1/2/2 4/4/2
f 3/5/3 2/6/3 30/7/4
f 30/7/4 2/6/3 7/8/4
f 30/7/4 7/8/4 8/9/5
f 30/7/4 8/9/5 29/10/5
f 29/10/5 8/9/5 9/11/6
f 29/10/5 9/11/6 28/12/6
f 28/12/6 9/11/6 10/13/7
f 28/12/6 10/13/8 27/14/8
f 27/14/7 10/13/7 11/15/9
f 27/14/7 11/15/9 26/16/9
f 26/16/9 11/15/9 12/17/10
f 26/16/9 12/17/10 25/18/10
f 25/18/10 12/17/10 13/19/11
f 25/18/10 13/19/11 24/20/11
f 24/20/11 13/19/11 14/21/12
f 24/20/11 14/21/12 23/22/12
f 23/22/12 14/21/12 15/23/13
f 23/22/12 15/23/13 22/24/13
f 22/24/14 15/23/14 16/25/15
f 22/24/13 16/25/15 21/26/15
f 21/26/15 16/25/15 17/27/16
f 21/26/15 17/27/16 20/28/16
f 20/28/16 17/27/16 18/29/17
f 20/28/16 18/29/17 19/30/17
f 19/30/17 18/29/17 6/31/18
f 6/31/18 18/29/17 5/32/18
f 3/33/19 30/34/19 4/35/19
f 4/35/19 30/34/19 29/36/19
f 4/35/19 29/36/19 28/37/19
f 28/37/19 27/38/19 4/35/19
f 4/35/19 27/38/19 26/39/19
f 4/35/19 26/39/19 25/40/19
f 25/40/19 24/41/19 4/35/19
f 4/35/19 24/41/19 23/42/19
f 4/35/19 23/42/19 22/43/19
f 22/43/19 21/44/19 4/35/19
f 4/35/19 21/44/19 20/45/19
f 4/35/19 20/45/19 19/46/19
f 19/46/19 6/47/19 4/35/19
f 5/33/20 18/34/20 1/35/20
f 1/35/20 18/34/20 17/36/20
f 1/35/20 17/36/20 16/37/20
f 16/37/20 15/38/20 1/35/20
f 1/35/20 15/38/20 14/39/20
f 1/35/20 14/39/20 13/40/20
f 13/40/20 12/41/20 1/35/20
f 1/35/20 12/41/20 11/42/20
f 1/35/20 11/42/20 10/43/20
f 10/43/20 9/44/20 1/35/20
f 1/35/20 9/44/20 8/45/20
f 1/35/20 8/45/20 7/46/20
f 7/46/20 2/47/20 1/35/20
